<svg width="116" height="20" viewBox="0 0 116 20" fill="none" xmlns="http://www.w3.org/2000/svg">
<path d="M9.45807 17.0415C9.7927 16.8315 10.2073 16.8315 10.5419 17.0415L15.001 19.8391C15.8156 20.3502 16.805 19.5654 16.5846 18.5829L15.4234 13.4087C15.3287 12.9868 15.4649 12.5438 15.7752 12.2643L19.6171 8.80454C20.3486 8.14577 19.9682 6.86955 19.0152 6.78551L13.8991 6.3343C13.5062 6.29965 13.1628 6.03691 13.0052 5.65031L10.9819 0.687869C10.608 -0.229291 9.39202 -0.229289 9.01807 0.687871L6.9948 5.65031C6.83717 6.03691 6.4938 6.29965 6.10089 6.3343L0.984754 6.78551C0.0317934 6.86955 -0.348641 8.14577 0.38289 8.80454L4.22482 12.2643C4.53514 12.5438 4.67131 12.9868 4.57662 13.4087L3.41544 18.5829C3.19496 19.5654 4.18438 20.3502 4.99905 19.8391L9.45807 17.0415Z" fill="#FA5D00"/>
<path d="M33.4581 17.0415C33.7927 16.8315 34.2073 16.8315 34.5419 17.0415L39.001 19.8391C39.8156 20.3502 40.805 19.5654 40.5846 18.5829L39.4234 13.4087C39.3287 12.9868 39.4649 12.5438 39.7752 12.2643L43.6171 8.80454C44.3486 8.14577 43.9682 6.86955 43.0152 6.78551L37.8991 6.3343C37.5062 6.29965 37.1628 6.03691 37.0052 5.65031L34.9819 0.687869C34.608 -0.229291 33.392 -0.229289 33.0181 0.687871L30.9948 5.65031C30.8372 6.03691 30.4938 6.29965 30.1009 6.3343L24.9848 6.78551C24.0318 6.86955 23.6514 8.14577 24.3829 8.80454L28.2248 12.2643C28.5351 12.5438 28.6713 12.9868 28.5766 13.4087L27.4154 18.5829C27.195 19.5654 28.1844 20.3502 28.9991 19.8391L33.4581 17.0415Z" fill="#FA5D00"/>
<path d="M57.4581 17.0415C57.7927 16.8315 58.2073 16.8315 58.5419 17.0415L63.001 19.8391C63.8156 20.3502 64.805 19.5654 64.5846 18.5829L63.4234 13.4087C63.3287 12.9868 63.4649 12.5438 63.7752 12.2643L67.6171 8.80454C68.3486 8.14577 67.9682 6.86955 67.0152 6.78551L61.8991 6.3343C61.5062 6.29965 61.1628 6.03691 61.0052 5.65031L58.9819 0.687869C58.608 -0.229291 57.392 -0.229289 57.0181 0.687871L54.9948 5.65031C54.8372 6.03691 54.4938 6.29965 54.1009 6.3343L48.9848 6.78551C48.0318 6.86955 47.6514 8.14577 48.3829 8.80454L52.2248 12.2643C52.5351 12.5438 52.6713 12.9868 52.5766 13.4087L51.4154 18.5829C51.195 19.5654 52.1844 20.3502 52.9991 19.8391L57.4581 17.0415Z" fill="#FA5D00"/>
<path d="M81.4581 17.0415C81.7927 16.8315 82.2073 16.8315 82.5419 17.0415L87.001 19.8391C87.8156 20.3502 88.805 19.5654 88.5846 18.5829L87.4234 13.4087C87.3287 12.9868 87.4649 12.5438 87.7752 12.2643L91.6171 8.80454C92.3486 8.14577 91.9682 6.86955 91.0152 6.78551L85.8991 6.3343C85.5062 6.29965 85.1628 6.03691 85.0052 5.65031L82.9819 0.687869C82.608 -0.229291 81.392 -0.229289 81.0181 0.687871L78.9948 5.65031C78.8372 6.03691 78.4938 6.29965 78.1009 6.3343L72.9848 6.78551C72.0318 6.86955 71.6514 8.14577 72.3829 8.80454L76.2248 12.2643C76.5351 12.5438 76.6713 12.9868 76.5766 13.4087L75.4154 18.5829C75.195 19.5654 76.1844 20.3502 76.9991 19.8391L81.4581 17.0415Z" fill="#FA5D00"/>
<path opacity="0.2" d="M105.458 17.0415C105.793 16.8315 106.207 16.8315 106.542 17.0415L111.001 19.8391C111.816 20.3502 112.805 19.5654 112.585 18.5829L111.423 13.4087C111.329 12.9868 111.465 12.5438 111.775 12.2643L115.617 8.80454C116.349 8.14577 115.968 6.86955 115.015 6.78551L109.899 6.3343C109.506 6.29965 109.163 6.03691 109.005 5.65031L106.982 0.687869C106.608 -0.229291 105.392 -0.229289 105.018 0.687871L102.995 5.65031C102.837 6.03691 102.494 6.29965 102.101 6.3343L96.9848 6.78551C96.0318 6.86955 95.6514 8.14577 96.3829 8.80454L100.225 12.2643C100.535 12.5438 100.671 12.9868 100.577 13.4087L99.4154 18.5829C99.195 19.5654 100.184 20.3502 100.999 19.8391L105.458 17.0415Z" fill="#FA5D00"/>
<path d="M102.995 5.65031L105.018 0.687869C105.195 0.25296 105.562 0.0242807 105.938 0.00183105V16.8859C105.772 16.8961 105.607 16.948 105.458 17.0415L100.999 19.8391C100.184 20.3502 99.195 19.5654 99.4154 18.5829L100.577 13.4087C100.671 12.9868 100.535 12.5438 100.225 12.2643L96.3829 8.80454C95.6514 8.14577 96.0318 6.86955 96.9848 6.78551L102.101 6.3343C102.494 6.29965 102.837 6.03691 102.995 5.65031Z" fill="#FA5D00"/>
</svg>
